<svg width="50" height="40" viewBox="0 0 50 40" fill="none" xmlns="http://www.w3.org/2000/svg">
<path d="M4.64844 0.039463C3.58594 0.0552406 2.4375 0.0710201 2.09766 0.0749645L1.48047 0.0789089L1.49219 1.55425C1.5 2.36688 1.51562 3.04143 1.53125 3.05721C1.54297 3.07299 3.375 3.06116 5.60156 3.03749C7.82812 3.00988 9.67578 3.00199 9.70703 3.01382C9.77734 3.04143 9.95703 3.40435 11.4219 6.49311L12.6172 9.02171V18.7692V28.5207L28.2695 28.5128L43.9219 28.501L44.1445 27.8107C44.2695 27.432 44.4922 26.7337 44.6445 26.2604C44.7969 25.7909 45.0469 25.0217 45.1953 24.5562C45.3477 24.0907 45.5898 23.3294 45.7383 22.8679C46.3516 20.9665 46.5742 20.2722 46.832 19.4754C47.3555 17.8619 49.3711 11.6095 49.6836 10.6351L50 9.65682V8.56017V7.46352L49.1523 7.4793C48.6836 7.48719 41.7695 7.51086 33.7891 7.53453C25.8086 7.55425 18.3711 7.58581 17.2617 7.59765L15.25 7.62132L15.0117 7.11244C14.2031 5.38857 12.4844 1.787 12.3789 1.58976C12.0273 0.94676 11.6602 0.564117 11.1602 0.315596C10.5977 0.0355167 10.5273 0.0276279 8.4375 0.0197392C7.41797 0.0157928 5.71094 0.0236835 4.64844 0.039463ZM45.3945 11.8028C45.293 12.1144 45.1836 12.4497 45.1562 12.5523L45.1016 12.7416H41.9922H38.8867V12.0237V11.3018L39.7656 11.2821C40.25 11.2702 41.7539 11.2545 43.1133 11.2505L45.582 11.2426L45.3945 11.8028ZM35.1562 12.0118V12.7416H33.3008H31.4453V12.0118V11.2821H33.3008H35.1562V12.0118ZM20.2734 12.0316V12.7416H18.3008H16.3281V12.0513V11.361L17.6094 11.3491C18.3125 11.3452 19.1992 11.3373 19.582 11.3294L20.2734 11.3215V12.0316ZM27.6953 12.0316V12.7416H25.8594H24.0234V12.0316V11.3215H25.8594H27.6953V12.0316ZM20.2734 17.6331V18.7771H18.3008H16.3281V17.6608C16.3281 17.0454 16.3398 16.5286 16.3555 16.5168C16.3672 16.501 17.2578 16.4892 18.3281 16.4892H20.2734V17.6331ZM27.6953 17.6331V18.7771H25.8594H24.0234V17.6331V16.4892H25.8594H27.6953V17.6331ZM35.1562 17.6331V18.7771H33.3008H31.4453V17.6331V16.4892H33.3008H35.1562V17.6331ZM43.8672 16.5128C43.8672 16.5286 43.707 17.0414 43.5078 17.6568L43.1484 18.7771H41.0273H38.9102L38.8984 17.6489C38.8906 17.0296 38.8945 16.5128 38.9023 16.5049C38.9297 16.4773 43.8672 16.4852 43.8672 16.5128ZM20.2734 23.6489V24.7732H18.3008H16.3281V23.6765C16.3281 23.073 16.3398 22.5641 16.3555 22.5523C16.3672 22.5365 17.2578 22.5247 18.3281 22.5247H20.2734V23.6489ZM27.6953 23.6489V24.7732H25.8594H24.0234V23.6489V22.5247H25.8594H27.6953V23.6489ZM35.1562 23.6489V24.7732H33.3008H31.4453V23.6489V22.5247H33.3008H35.1562V23.6489ZM41.9141 22.5681C41.9141 22.5957 41.793 22.9901 41.6445 23.4477C41.4922 23.9053 41.3398 24.3866 41.2969 24.5168L41.2227 24.7535L40.0664 24.7653L38.9062 24.7732V23.6489V22.5247H40.4102C41.5078 22.5247 41.9141 22.5365 41.9141 22.5681Z" fill="black"/>
<path d="M20.0195 30.4024C18.4141 30.5365 17.1094 31.3176 16.2695 32.647C15.5352 33.8067 15.3477 35.3452 15.7773 36.6746C16.2344 38.0828 17.3555 39.2466 18.7148 39.7199C20.8828 40.4773 23.2227 39.6134 24.4063 37.6174C24.8867 36.8126 25.1133 35.787 25.0352 34.7811C24.8711 32.6943 23.2969 30.8994 21.2695 30.501C20.875 30.4221 20.3047 30.3748 20.0195 30.4024ZM20.9375 32.8836C21.7148 33.1045 22.3906 33.7909 22.5977 34.5799C22.6797 34.8836 22.6797 35.4911 22.5977 35.7988C22.4844 36.2249 22.3086 36.5247 21.9727 36.8639C21.6172 37.2268 21.3281 37.4004 20.875 37.5148C19.625 37.8383 18.3281 37.0612 18.0078 35.7988C17.9219 35.4556 17.9063 35.0256 17.9727 34.7061C17.9961 34.5917 18.0898 34.3353 18.1836 34.142C18.6758 33.1085 19.8438 32.5759 20.9375 32.8836Z" fill="black"/>
<path d="M36.0352 30.4142C34.168 30.5838 32.5508 31.8777 31.9531 33.6805C31.4023 35.3531 31.8164 37.215 33.0273 38.497C33.7188 39.2308 34.543 39.6923 35.5469 39.9093C36.0039 40.0079 36.9258 40.0079 37.3828 39.9093C38.6484 39.6371 39.7188 38.9152 40.4141 37.8659C40.957 37.0454 41.2109 36.1893 41.2109 35.1834C41.2109 34.3866 41.0508 33.7081 40.6992 33.0099C39.8164 31.2702 37.9648 30.2367 36.0352 30.4142ZM37.1211 32.8876C37.918 33.1203 38.5664 33.8028 38.7695 34.6154C38.8438 34.9152 38.8438 35.4517 38.7695 35.7751C38.5703 36.6193 37.8203 37.3531 36.9727 37.5345C36.1563 37.7081 35.3945 37.4793 34.8008 36.8797C34.293 36.3708 34.0703 35.787 34.1133 35.0572C34.1406 34.5838 34.25 34.2367 34.4961 33.8698C34.7422 33.4951 35.0156 33.2544 35.4102 33.0533C35.9375 32.789 36.5781 32.7258 37.1211 32.8876Z" fill="black"/>
</svg>
