<?xml version="1.0" encoding="UTF-8" standalone="no"?>
<!-- Created with Inkscape (http://www.inkscape.org/) -->

<svg
   width="1920"
   height="1080"
   viewBox="0 0 1920 1080"
   version="1.1"
   id="svg5"
   inkscape:version="1.1.1 (3bf5ae0d25, 2021-09-20)"
   sodipodi:docname="Logo.svg"
   xmlns:inkscape="http://www.inkscape.org/namespaces/inkscape"
   xmlns:sodipodi="http://sodipodi.sourceforge.net/DTD/sodipodi-0.dtd"
   xmlns="http://www.w3.org/2000/svg"
   xmlns:svg="http://www.w3.org/2000/svg">
  <sodipodi:namedview
     id="namedview7"
     pagecolor="#ffffff"
     bordercolor="#666666"
     borderopacity="1.0"
     inkscape:pageshadow="2"
     inkscape:pageopacity="0.0"
     inkscape:pagecheckerboard="0"
     inkscape:document-units="px"
     showgrid="false"
     inkscape:lockguides="true"
     inkscape:zoom="0.17022941"
     inkscape:cx="226.16538"
     inkscape:cy="613.87747"
     inkscape:window-width="1366"
     inkscape:window-height="705"
     inkscape:window-x="-8"
     inkscape:window-y="-8"
     inkscape:window-maximized="1"
     inkscape:current-layer="layer1" />
  <defs
     id="defs2">
    <rect
       x="328.96783"
       y="778.36139"
       width="1398.1133"
       height="255.53751"
       id="rect62047" />
    <rect
       x="396.69231"
       y="361.38462"
       width="807.92308"
       height="623.07692"
       id="rect5126" />
    <rect
       x="373.84615"
       y="326.07692"
       width="1341.6923"
       height="454.84615"
       id="rect2564" />
    <rect
       x="396.69232"
       y="361.38461"
       width="807.9231"
       height="623.0769"
       id="rect5126-3" />
  </defs>
  <g
     inkscape:label="ARTPOP"
     inkscape:groupmode="layer"
     id="layer1">
    <text
       xml:space="preserve"
       id="text2562"
       style="fill:black;fill-opacity:1;line-height:1.25;stroke:none;font-family:OpenSymbol;font-style:normal;font-weight:bold;font-size:133.33333333px;white-space:pre;shape-inside:url(#rect2564);-inkscape-font-specification:'OpenSymbol Bold';font-stretch:normal;font-variant:normal" />
    <text
       xml:space="preserve"
       style="font-style:normal;font-weight:normal;font-size:40px;line-height:1.25;font-family:sans-serif;fill:#000000;fill-opacity:1;stroke:none"
       x="616.84613"
       y="429.92307"
       id="text4022"><tspan
         sodipodi:role="line"
         id="tspan4020"
         x="616.84613"
         y="429.92307" /></text>
    <path
       d="m 616.46629,254.83039 21.87454,49.17702 H 420.09629 v -13.45897 c 3.89622,-0.34511 8.46038,-0.86276 13.69245,-1.55294 5.23209,-0.80524 8.68303,-1.55297 10.35284,-2.24319 4.00756,-1.61045 6.79059,-3.85361 8.34907,-6.72947 1.5585,-2.87585 2.33774,-6.55693 2.33774,-11.04327 V 96.256092 c 0,-4.141233 60.5029,0.920268 59.27837,-1.725509 -1.22454,-2.760805 -65.28971,-13.689048 -69.96518,-15.874692 -3.45094,-1.610482 -7.62547,-2.875857 -12.5236,-3.796125 -4.78678,-1.035296 -8.62735,-1.783023 -11.52169,-2.243157 l 162.4727,-43.734575 -32.39428,30.275607 v 13.458968 c -3.56228,0.345107 -7.79247,0.862754 -12.69057,1.552969 -4.78679,0.575161 -8.96132,1.437915 -12.5236,2.588264 -4.34153,1.495429 -7.23587,3.853639 -8.68303,7.074577 -1.44716,3.105912 -1.27701,6.779325 -2.17075,10.698164 -22.63964,99.270087 -21.30789,100.445857 -21.30789,154.109217 0,7.59222 -40.30822,31.38304 1.50281,24.82611 4.29801,-0.67402 24.25789,7.59223 27.15224,9.66284 2.89434,2.18565 6.9019,3.62359 12.02266,4.31378 5.23209,0.57516 12.41228,0.86275 21.54059,0.86275 8.90567,0 17.53304,-0.51764 25.88211,-1.55297 8.46037,-1.15034 14.52735,-3.56604 18.20094,-7.24711 5.67738,-5.86675 11.46606,-14.09167 17.36607,-24.67481 6.01134,-10.69816 -20.92832,33.53243 -17.36607,24.67481 -9.16153,34.16462 -8.52532,31.71582 17.36607,-24.67481 z"
       style="font-weight:bold;font-size:133.333px;line-height:1.25;font-family:Vani;-inkscape-font-specification:'Vani Bold';text-align:center;letter-spacing:12px;text-anchor:middle;white-space:pre;fill:#ff0066;stroke-width:2.60726"
       id="path51836"
       sodipodi:nodetypes="ccccccsssccccccccccsssccsccccc" />
    <path
       id="path51838"
       style="font-weight:bold;font-size:133.333px;line-height:1.25;font-family:Vani;-inkscape-font-specification:'Vani Bold';text-align:center;letter-spacing:12px;text-anchor:middle;white-space:pre;fill:#ff0066;stroke-width:2.60726"
       d="m 789.18044,55.70649 c -15.69625,39.111554 -30.05676,74.88566 -43.0813,107.32523 -12.91322,32.43957 -25.82988,64.82362 -38.7431,97.14816 -2.1151,5.52164 -4.78681,10.29732 -8.01513,14.3235 -3.11697,4.02618 -6.95758,7.41624 -11.52174,10.17707 -2.67172,1.72551 -6.34531,3.10594 -11.02078,4.14123 -4.56416,0.92027 -8.67973,1.49891 -12.35332,1.72896 v 13.45902 l 97.18338,-13.45902 c -12.57926,-1.15035 -21.59633,-2.99261 -27.05106,-5.52336 -5.3434,-2.64578 -8.01512,-5.8075 -8.01512,-9.4886 0,-1.15035 0.16697,-3.16518 0.50097,-6.04104 0.44528,-2.87583 1.72213,-7.53473 3.83723,-13.97664 1.66981,-4.94645 3.61963,-10.58488 5.84604,-16.91176 2.33772,-6.32688 4.45451,-11.84854 6.34697,-16.56493 l 7.69452,-17.08258 h -1.01693 l 33.89897,-88.68971 3.26114,8.41708 31.06361,-68.98261 z m -46.08696,166.33782 h 81.81938 l 20.20311,50.73009 c 0.77925,1.95559 1.2262,3.50856 1.33751,4.65891 0.22263,1.15035 0.33564,2.18564 0.33564,3.10591 0,2.64578 -4.06658,4.88893 -12.19299,6.7295 -8.12644,1.7255 -15.1937,2.82179 -21.20502,3.28192 v 13.45902 c 43.02551,0 75.39686,-13.45902 129.07854,-13.45902 -3.33962,-0.23005 -7.07224,-0.80869 -11.19111,-1.72896 -4.11888,-0.92026 -7.7335,-2.30069 -10.85048,-4.14123 -4.11887,-2.53075 -7.29155,-5.1748 -9.51796,-7.93563 -2.22641,-2.87586 -4.06322,-6.03759 -5.51038,-9.48861 -8.68303,-21.16625 -19.20295,-47.85604 -31.55955,-80.06555 -8.75906,-22.83189 -20.76107,-53.62279 -34.27467,-88.130642 l -41.869,53.375342 20.36842,52.52637 h -61.57118 z" />
    <path
       d="m 1188.8181,84.350067 c 14.4719,9.777895 19.5018,35.219723 28.4074,51.554543 8.9056,16.21978 20.0173,23.73517 20.0173,47.31714 0,20.70611 -4.0076,38.76645 -12.0227,54.18101 -7.9038,15.2995 -17.0918,33.34287 -30.2277,43.12074 0,0 -5.914,30.8442 -22.946,35.67562 -16.9211,4.71639 -50.7489,13.0697 -67.9165,5.69841 l -96.3194,-41.35704 -32.39438,10.00795 c 32.39438,-10.00795 8.01508,-0.46013 13.35848,-1.0353 5.3434,-0.57516 8.9057,-1.26537 10.6868,-2.07061 4.0076,-1.72551 6.7906,-4.02618 8.3491,-6.90204 1.5585,-2.99088 2.3377,-6.55693 2.3377,-10.69816 V 96.256092 c 0,-3.911153 -0.7236,-7.419711 -2.1707,-10.525623 -1.4472,-3.220938 -4.2859,-5.809202 -8.5161,-7.764792 -4.2302,-1.955563 -8.7387,-3.278452 -13.5255,-3.968666 -4.6754,-0.690188 -8.29335,-1.150322 -10.85375,-1.380402 l 1.33174,-42.358414 124.73911,28.899446 c 13.1435,3.045085 27.8859,1.783023 43.2482,5.349068 15.3621,3.566072 30.1679,10.180516 44.4169,19.843358 z M 1154.754,259.83438 c 5.4546,-9.20271 9.4065,-20.13095 11.8557,-32.78468 2.5605,-12.76875 3.8406,-27.43558 3.8406,-44.00049 0,-16.21977 -1.6697,-31.00166 -5.0094,-44.3456 -3.3397,-13.34394 -8.2378,-24.73229 -14.6945,-34.16508 -6.4565,-9.432786 -18.5225,9.40965 -28.2075,4.23312 -9.5736,-5.17652 -16.4878,-33.911884 -28.7331,-33.911884 -3.8962,0 -8.349,0.115026 -13.3585,0.345107 -4.8981,0.115027 -8.5717,0.230053 -11.0207,0.345107 v 185.83737 c 0,4.1412 0.5009,7.8223 1.5028,11.04324 1.1132,3.10591 2.95,5.86674 5.5104,8.28244 2.5604,2.41572 5.6773,4.3138 9.3509,5.6942 3.7849,1.26538 8.683,1.89805 14.6944,1.89805 12.5792,0 23.3774,-2.41572 32.3944,-7.24714 9.0169,-4.83142 16.3085,-11.90603 21.8745,-21.22376 z"
       style="font-weight:bold;font-size:133.333px;line-height:1.25;font-family:Vani;-inkscape-font-specification:'Vani Bold';text-align:center;letter-spacing:12px;text-anchor:middle;white-space:pre;fill:#ff0066;stroke-width:2.60726"
       id="path51840"
       sodipodi:nodetypes="ccscccsccsccsscscccsscccssscsccscscssc" />
    <path
       d="m 1541.5361,72.616609 c -4.0076,0.460134 -7.6809,1.207861 -11.0206,2.243157 -3.3397,1.035321 -6.5124,2.473237 -9.5181,4.313773 -4.7868,2.760831 -9.0726,6.326876 -12.8576,10.698163 -3.6736,4.25626 -7.2913,9.030168 -10.8536,14.321718 -7.2359,10.92822 -14.8614,22.83425 -22.8766,35.71805 -7.9038,12.76876 -16.5311,26.86043 -25.882,42.27499 -6.1226,9.77789 -9.9075,17.3126 -11.3548,22.60416 -1.3358,5.17653 -129.8037,21.99887 -117.8654,25.71434 l 115.8617,36.05892 c 3.8373,1.19426 0.7236,7.76479 2.1706,10.8707 1.5587,3.10591 4.4529,5.63666 8.6831,7.59222 1.8926,0.80525 5.9001,1.89808 12.0226,3.27848 6.1228,1.26538 -99.9033,87.33523 -97.0091,87.56531 l 12.5167,-96.36539 72.4754,38.26385 -106.5396,-27.22061 c 3.1171,-0.23005 7.5699,-0.69021 13.3585,-1.3804 5.8999,-0.69019 10.0187,-1.49543 12.3566,-2.41573 4.1189,-1.84053 6.902,-4.25623 8.3491,-7.24711 1.5586,-3.10592 2.3378,-6.84453 2.3378,-11.21582 0,-14.37923 447.0846,11.85663 0,-43.13773 -3.648,-0.44871 -0.056,-7.13212 -0.1667,-10.00797 -0.1103,-2.87586 -0.5009,-5.29156 -1.1691,-7.24712 -0.7792,-2.18565 -2.1149,-4.94648 -4.0075,-8.28247 -1.8924,-3.45102 -4.3413,-7.87982 -7.347,-13.2864 -8.5719,-15.52958 -16.8654,-30.25393 -24.8802,-44.17306 -8.0151,-13.9191 -15.6407,-26.97545 -22.8766,-39.16907 -3.7849,-6.326874 -7.6255,-11.388348 -11.5218,-15.184474 -3.7849,-3.911153 -7.6809,-7.074578 -11.6884,-9.490302 -3.0058,-1.725509 -6.6794,-3.048398 -11.0209,-3.968666 -4.2302,-0.920268 -8.0708,-1.495429 -11.5218,-1.725509 V 59.157641 h 135.7559 v 13.458968 c -12.4679,0.345107 -20.8726,1.265375 -25.2141,2.760804 -4.3415,1.380402 -6.5124,3.335992 -6.5124,5.866742 0,1.265376 0.7792,3.796126 2.3378,7.592252 1.6698,3.796126 4.5642,9.662842 8.683,17.600173 3.785,7.4772 9.2953,17.77274 16.5312,30.88663 7.347,13.11389 16.1413,28.47091 26.383,46.07111 21.1509,-34.62525 35.6784,-58.78238 43.5822,-72.4714 7.9036,-13.804073 11.8555,-22.25908 11.8555,-25.364991 0,-3.911153 -2.3376,-6.902038 -7.013,-8.972654 -4.5642,-2.070617 -12.0227,-3.393505 -22.3757,-3.968666 V 59.157641 h 87.8321 z"
       style="font-weight:bold;font-size:133.333px;line-height:1.25;font-family:Vani;-inkscape-font-specification:'Vani Bold';text-align:center;letter-spacing:12px;text-anchor:middle;white-space:pre;fill:#ff00cc;stroke-width:2.60726"
       id="path51842"
       sodipodi:nodetypes="csccccccssccccccccccssscccscccccccccscccccsccccc" />
    <path
       id="path51846"
       style="font-weight:bold;font-size:200px;line-height:1.25;font-family:Vani;-inkscape-font-specification:'Vani Bold';letter-spacing:12px;fill:#ff0066;stroke-width:2.60726"
       d="m 322.2845,543.85435 c -29.72274,0 -56.85731,4.74515 -81.40359,14.23548 -4.30552,1.67605 -8.4573,3.52213 -12.53365,5.44572 l 44.3086,23.70856 c 14.67088,-12.16054 32.3702,-18.28353 53.13524,-18.28353 27.05102,0 49.42661,9.74914 67.12666,29.24745 10.55216,11.6242 -5.31575,25.98324 -17.18742,44.1766 l 84.81503,45.37755 -2.25426,-134.0724 H 436.5 l -15.52931,14.23548 c -11.18777,-5.86677 -25.38121,-11.30211 -42.58033,-16.30609 -17.19912,-5.17653 -35.90106,-7.76482 -56.10586,-7.76482 z m 138.26087,143.90783 -93.29103,-28.65213 c -2.73058,7.9844 -3.61004,16.57736 -0.66627,25.90342 z M 176.75993,600.60994 c -16.36668,17.15896 -29.00128,37.38615 -37.82138,60.7519 -9.18399,24.32975 -13.77598,50.81639 -13.77598,79.45992 0,30.71414 4.84247,57.97723 14.5274,81.78934 9.85194,23.81207 23.29395,43.74175 40.3261,59.78904 17.03215,16.21985 36.81947,28.38474 59.362,36.49464 22.54255,8.10992 46.67138,12.16486 72.38656,12.16486 27.385,0 57.35825,-4.57258 89.91968,-13.71783 32.72843,-9.14522 30.80608,286.61559 55.49471,80.8472 -0.33389,-7.76479 18.06073,-124.33015 17.89375,-129.5067 -0.16697,-5.3491 -37.32349,-14.14023 -32.21579,-20.96498 l 31.96531,-42.70646 c 3.37105,-4.50431 1.08539,-11.12957 3.25614,-16.30612 2.17075,-5.17656 6.67928,-8.88641 13.52553,-11.12957 6.01134,-2.07062 11.02081,-3.45105 15.02837,-4.14123 4.00756,-0.69022 8.59954,-1.29414 13.77598,-1.81178 V 751.43365 H 335.81 v 20.18852 c 5.00947,0.69018 11.27126,1.81178 18.78545,3.36475 7.51418,1.55294 13.77598,3.53728 18.78545,5.95303 6.51228,3.10592 10.85383,6.81574 13.02458,11.12954 2.17076,4.14124 3.25614,9.31779 3.25614,15.52964 v 74.5422 c -6.34531,6.03931 -15.27882,11.3884 -26.80057,16.04728 -11.35475,4.48634 -24.37933,6.7295 -39.07373,6.7295 -31.39258,0 -55.68838,-15.27083 -72.88753,-45.8124 -17.03215,-30.5416 -25.54818,-72.81669 -25.54818,-126.82526 0,-45.56851 6.97723,-82.32617 20.89441,-110.33281 z" />
    <path
       d="M 923.23448,805.37008 825.50469,967.75738 761.581,900.77929 c 9.01702,-0.69019 19.62035,-2.32943 31.81003,-4.91769 12.18966,-2.76083 18.28449,-6.12558 18.28449,-10.09428 0,-1.3804 -0.16698,-2.93337 -0.50094,-4.65888 -0.16697,-1.72551 -0.83481,-4.05496 -2.00378,-6.98833 l -27.64369,-139.3987 -125.39507,63.30354 c -2.83869,7.0746 -6.01132,15.35707 -9.51794,24.84739 -3.33965,9.49033 -6.26182,17.94537 -8.76654,25.36508 -3.17266,9.66286 -5.09295,16.6512 -5.76089,20.96497 -0.50094,4.3138 -0.75142,7.33344 -0.75142,9.05895 0,5.52164 4.00756,10.26682 12.02269,14.23548 8.18211,3.79613 21.70764,6.55696 40.57657,8.28247 H 538.15946 L 660.64057,709.50611 538.15946,900.77929 c 5.5104,-0.34511 11.68872,-1.20786 18.53497,-2.58827 7.01322,-1.55294 12.52362,-3.62356 16.53118,-6.21185 6.84625,-4.14123 12.60713,-9.23149 17.28263,-15.2708 4.84247,-6.03931 8.85003,-13.20018 12.02269,-21.48265 19.36987,-48.48693 38.73974,-97.06014 58.10964,-145.71961 19.53686,-48.6595 41.07749,-102.32299 64.62192,-160.99044 h 82.05636 c 14.084,94.17906 -25.79174,186.20574 44.93324,197.22621 49.73255,7.7494 34.31473,88.3463 47.33932,120.09576 2.17075,5.17656 4.92595,9.92171 8.26558,14.23548 3.33965,4.14124 8.09863,8.10993 14.27695,11.90605 4.67549,2.76084 10.10241,4.83145 16.28073,6.21185 6.17831,1.38041 11.7722,2.24316 16.78166,2.58827 z M 809.1708,874.12011 716.99688,639.36396 666.15094,772.40106 Z"
       style="font-weight:bold;font-size:200px;line-height:1.25;font-family:Vani;-inkscape-font-specification:'Vani Bold';letter-spacing:12px;fill:#ff00cc;stroke-width:2.60726"
       id="path51848"
       sodipodi:nodetypes="ccccscccccccsccccccccccccscccscccccc" />
    <path
       d="m 1643.4348,798.02495 -17.2826,122.94286 v -20.18852 c 9.0172,-0.69019 19.6205,-2.32943 31.8102,-4.91769 12.1896,-2.76083 18.2844,-6.12558 18.2844,-10.09428 0,-1.3804 -0.1667,-2.93337 -0.5009,-4.65888 -0.1667,-1.72551 -0.8356,-4.05496 -2.0039,-6.98833 l -30.3072,-76.09516 18.4333,-110.09309 c -2.8388,7.07461 -147.1761,125.45016 -150.6828,134.94048 -3.3397,9.49033 -6.2618,17.94537 -8.7666,25.36508 -3.1725,9.66286 -5.0927,16.6512 -5.7609,20.96497 -0.5009,4.3138 -0.7512,7.33344 -0.7512,9.05895 0,5.52164 4.0075,10.26682 12.0227,14.23548 8.1821,3.79613 21.7075,6.55696 40.5765,8.28247 v 20.18852 l -132.4578,-101.83612 -13.3174,81.6476 c 5.5105,-0.34511 11.6887,-1.20786 18.535,-2.58827 7.0133,-1.55294 12.5236,-3.62356 16.5312,-6.21185 6.8463,-4.14123 12.6072,-9.23149 17.2827,-15.2708 4.8424,-6.03931 8.8499,-13.20018 12.0226,-21.48265 19.37,-48.48693 38.7399,-97.06014 58.1098,-145.71961 19.5367,-48.6595 41.0775,-102.32299 64.6219,-160.99044 h 50.0944 c 32.7284,83.16977 58.3601,148.91182 76.8952,197.22621 18.5348,48.3144 34.3147,88.3463 47.3392,120.09576 2.1706,5.17656 19.203,21.82776 22.5426,26.14153 3.3397,4.14124 -6.1784,-3.79612 0,0 4.6755,2.76084 10.1024,4.83145 16.2806,6.21185 6.1784,1.38041 11.7724,2.24316 16.7818,2.58827 z m -10.2693,-25.62389 -3.6547,-141.29407 -98.7886,141.29407 z"
       style="font-weight:bold;font-size:200px;line-height:1.25;font-family:Vani;-inkscape-font-specification:'Vani Bold';letter-spacing:12px;fill:#ff0066;stroke-width:2.60726"
       id="path51852"
       sodipodi:nodetypes="ccccscccccccsccccccccccccscccscccccc" />
    <path
       style="fill:#ffffff;fill-opacity:1;stroke:none;stroke-width:1.51973px;stroke-linecap:butt;stroke-linejoin:miter;stroke-opacity:1"
       d="M 1422.3177,396.75462 1273.6063,896.46244 1612.7604,349.64096 Z"
       id="path51915-0" />
    <path
       d="m 1016.5761,785.94328 c 5.1766,0.51765 9.7685,1.12156 13.776,1.81178 4.0076,0.69019 9.0169,2.07062 15.0284,4.14123 6.8463,2.24316 11.3548,5.95301 13.5254,11.12957 2.1709,5.17655 -0.1154,11.80178 3.2564,16.30609 l 31.9617,42.70647 c 5.1076,6.82475 -32.0454,15.6159 -32.2123,20.965 -0.1667,5.17655 18.2267,121.74028 17.8928,129.50508 24.6886,205.7684 22.7671,-89.99083 55.4957,-80.84561 32.5614,9.14525 62.5346,13.71786 89.9194,13.71786 25.7153,0 49.844,-4.05496 72.3867,-12.16489 22.5426,-8.1099 42.3298,-20.27476 59.3619,-36.49461 17.0323,-16.04728 30.4744,-35.97697 40.3262,-59.78904 9.6848,-23.81211 9.594,-38.74262 -1.4535,-10.22886 -54.8534,141.57841 1.4535,10.22886 -40.4108,-148.2681 -6.6545,-25.19359 20.1568,-48.04702 2.7905,-65.64727 -17.0321,-17.42769 -13.7665,-61.16229 -38.1456,-70.65262 0,0 -75.6525,-8.73081 -105.3751,-8.73081 -20.2048,0 -38.9068,27.35917 -56.1059,32.5357 -17.1993,5.00399 -31.3925,10.43938 -42.5804,16.30612 l -15.5293,-14.2355 h -21.7911 l -2.2543,134.07245 93.9557,-2.75232 c 12.6906,-40.20447 -44.028,-67.30353 -26.3281,-86.80184 17.7002,-19.4983 64.0471,1.02814 91.0983,1.02814 32.0604,0 32.8858,-15.78129 50.4188,13.20734 17.366,28.98863 -0.5858,96.45758 -0.5858,147.36024 0,54.00857 18.119,68.76037 1.0867,99.30194 -17.199,30.54158 -41.495,45.8124 -72.8876,45.8124 -14.6942,0 -27.719,-2.24318 -39.0735,-6.7295 -11.5218,-4.65888 -20.4554,-10.00797 -26.8005,-16.04728 v -74.5422 c 0,-6.21184 1.0851,-11.38837 3.256,-15.52961 2.1706,-4.3138 6.5121,-8.02365 13.0245,-11.12956 5.0094,-2.41573 11.2712,-4.40007 18.7854,-5.95302 7.5142,-1.55296 13.776,-2.67456 18.7854,-3.36474 v -20.18855 h -184.5981 z"
       style="font-weight:bold;font-size:200px;line-height:1.25;font-family:Vani;-inkscape-font-specification:'Vani Bold';letter-spacing:12px;fill:#ff0066;stroke-width:2.60726"
       id="path51846-4"
       sodipodi:nodetypes="cscssscccssccssccsccccccsscscsccsccscccc" />
  </g>
</svg>
