<svg width="39" height="39" viewBox="0 0 39 39" fill="none" xmlns="http://www.w3.org/2000/svg">
<g clip-path="url(#clip0_28_433)">
<path d="M10.5422 0.0613174C9.94805 0.107311 9.71039 0.141037 9.14063 0.257545C8.76281 0.337261 8.31797 0.447639 8.15039 0.505894C7.16321 0.846226 6.94078 0.938206 6.3375 1.24174C3.66844 2.58467 1.64836 4.90259 0.655081 7.75707C0.435706 8.38868 0.383909 8.57571 0.249847 9.25943C0.115784 9.94316 0.0883624 10.1363 0.0457062 10.7863C3.05288e-06 11.4731 3.05288e-06 11.5927 0.0457062 12.2733C0.0883624 12.9172 0.115784 13.1196 0.2468 13.7972C0.383909 14.487 0.432659 14.6679 0.661175 15.3302C1.00547 16.3267 1.365 17.0502 1.9561 17.9363C2.40399 18.6108 3.14133 19.5 3.5618 19.8741C3.68063 19.9814 3.85125 20.1531 3.94266 20.2573C4.03407 20.3646 4.35399 20.6682 4.65258 20.9318C6.15469 22.2717 7.93711 23.167 9.91149 23.5748C10.5788 23.7127 10.7402 23.7342 11.438 23.7833C12.1753 23.8323 12.2606 23.8323 12.9919 23.7833C13.6774 23.7373 13.8541 23.7127 14.5092 23.5778C14.9175 23.495 15.2923 23.4153 15.341 23.3969C16.6085 22.9922 17.6627 22.4986 18.5707 21.8792C18.8723 21.6738 19.1344 21.4929 19.1557 21.4837C19.177 21.4684 19.2258 21.5113 19.2837 21.5941C19.3598 21.7075 19.4055 21.7413 19.5518 21.7873C19.7224 21.8425 19.7559 21.8731 20.6273 22.796C24.3689 26.7542 30.1245 32.92 34.3505 37.4946L35.752 39.0061L35.9958 38.9847C36.2334 38.9663 36.2548 38.9571 36.593 38.7455C37.2755 38.3193 38.2413 37.3934 38.7136 36.7127C38.9238 36.4092 38.9482 36.3601 38.9726 36.1792C38.9878 36.0689 38.997 35.9554 39 35.9278C39 35.8512 37.3852 34.1618 35.7825 32.5613C34.2255 31.0068 33.2566 30.0686 30.1793 27.1344C26.5901 23.7097 24.4999 21.6616 23.0191 20.1163C22.3519 19.4203 22.0868 19.1627 22.038 19.1627C21.9893 19.1627 21.968 19.1443 21.968 19.1014C21.968 19.0248 21.837 18.8101 21.7638 18.7703C21.7181 18.7427 21.7334 18.7059 21.9162 18.433C22.2727 17.8903 22.7571 16.8663 23.0344 16.066C23.2446 15.4651 23.3025 15.2505 23.4305 14.6066C23.5615 13.9474 23.5889 13.7604 23.6346 13.0797C23.6834 12.35 23.6834 12.2611 23.6346 11.5191C23.5859 10.82 23.5645 10.6483 23.4305 9.98915C23.0344 8.02382 22.1538 6.23632 20.8254 4.70637C20.5603 4.40283 20.2526 4.07476 20.1429 3.97972C20.0332 3.8816 19.8595 3.70684 19.759 3.5934C19.6584 3.47689 19.3294 3.16108 19.0247 2.89127C17.5409 1.57288 15.7676 0.677593 13.8328 0.26981C13.2082 0.13797 13.0193 0.110374 12.3398 0.0613174C11.4319 -0.00920105 11.4684 -0.00920105 10.5422 0.0613174ZM13.65 0.824764C14.5884 0.95047 15.4385 1.16816 16.2947 1.49622C16.7913 1.68632 16.575 1.63113 15.9016 1.39811C15.3654 1.21108 15.1125 1.14363 14.4879 1.01792C13.8176 0.879951 13.6378 0.855423 12.9797 0.8125C12.2911 0.766506 12.1784 0.766506 11.4867 0.8125C10.8591 0.855423 10.6275 0.886082 10.0395 0.999527C9.65555 1.07618 9.30516 1.14363 9.2625 1.15283L9.18633 1.16509L9.2625 1.13443C9.4575 1.04858 10.5087 0.849293 11.0297 0.800236C11.2216 0.781837 11.4288 0.760376 11.4867 0.754242C11.7792 0.720516 13.2295 0.766506 13.65 0.824764ZM13.1473 1.14976C14.9602 1.2724 16.837 1.93467 18.4336 3.01391C19.4634 3.7099 19.9905 4.23726 20.6944 5.28891C21.5231 6.52146 22.0533 7.7908 22.358 9.29009C22.492 9.95236 22.5164 10.1302 22.5621 10.7863C22.6078 11.4731 22.6078 11.5866 22.5621 12.258C22.5195 12.8835 22.492 13.092 22.361 13.7573C22.23 14.4196 22.1752 14.625 21.971 15.2137C21.1727 17.5009 19.695 19.4387 17.7023 20.8031C16.9376 21.3243 16.0266 21.7934 15.2344 22.0693C14.9419 22.1705 14.6463 22.2748 14.5793 22.2993C14.5123 22.3238 14.1162 22.4127 13.6957 22.4986C13.0315 22.6335 12.8426 22.6611 12.2119 22.704C11.5507 22.75 11.4319 22.75 10.7494 22.704C8.73539 22.5722 6.88899 21.9406 5.25586 20.8245C4.21383 20.1101 3.68672 19.5828 3.00422 18.5679C2.18766 17.3538 1.61485 15.9833 1.32539 14.5545C1.20352 13.9535 1.1761 13.7512 1.13039 13.0828C1.0786 12.3469 1.0786 12.2733 1.12735 11.5436C1.17305 10.8844 1.20047 10.6759 1.32539 10.0597C2.19985 5.68137 5.63672 2.21674 9.99071 1.33372C10.5848 1.21108 10.8255 1.17736 11.4227 1.13443C11.8188 1.10684 12.2302 1.08844 12.3398 1.09457C12.4495 1.1007 12.8121 1.12523 13.1473 1.14976ZM9.14063 1.18655C8.97914 1.25094 7.95539 1.60353 7.90664 1.6158C7.87313 1.62193 7.92797 1.59127 8.02852 1.54835C8.26922 1.4441 9.08274 1.16509 9.14063 1.16816C9.18024 1.16816 9.18024 1.17123 9.14063 1.18655ZM7.64461 1.72924C7.61414 1.75684 6.69094 2.21061 6.71836 2.18302C6.75492 2.14622 7.58977 1.72005 7.62938 1.71698C7.64461 1.71698 7.65071 1.72311 7.64461 1.72924ZM17.1417 1.89481C17.1265 1.90707 16.8797 1.78443 16.8797 1.76297C16.8797 1.75377 16.9406 1.7783 17.0168 1.81509C17.0899 1.85189 17.1478 1.88561 17.1417 1.89481ZM22.3945 8.04835C22.3945 8.06368 22.3793 8.05755 22.3641 8.03302C22.3488 8.00849 22.3336 7.9717 22.3336 7.95637C22.3336 7.93797 22.3488 7.94717 22.3641 7.9717C22.3793 7.99623 22.3945 8.02995 22.3945 8.04835ZM22.6291 8.95896C22.62 8.98349 22.6109 8.97429 22.6109 8.94057C22.6078 8.90684 22.617 8.88844 22.6261 8.90071C22.6352 8.9099 22.6383 8.9375 22.6291 8.95896ZM22.7236 9.39741C22.7205 9.48019 22.6444 9.17358 22.6444 9.07547C22.6444 9.03255 22.6627 9.07547 22.684 9.16745C22.7084 9.25943 22.7266 9.36368 22.7236 9.39741ZM22.751 9.57217C22.7419 9.59363 22.7358 9.5783 22.7358 9.53538C22.7358 9.49245 22.7419 9.47712 22.751 9.49552C22.7571 9.51698 22.7571 9.55377 22.751 9.57217ZM22.9095 10.9274C22.9155 11.3229 22.8912 11.1788 22.8729 10.7158C22.8638 10.4399 22.8668 10.3571 22.882 10.4858C22.8942 10.5962 22.9064 10.7955 22.9095 10.9274ZM22.9338 11.3658C22.9247 11.3965 22.9186 11.3719 22.9186 11.3137C22.9186 11.2554 22.9247 11.2309 22.9338 11.2585C22.9399 11.2892 22.9399 11.3382 22.9338 11.3658ZM22.9338 11.841C22.9277 11.8809 22.9216 11.8564 22.9216 11.7889C22.9186 11.7215 22.9247 11.6908 22.9338 11.7184C22.9399 11.7491 22.9399 11.8042 22.9338 11.841ZM22.9003 12.3469C22.8881 12.58 22.8668 12.8191 22.8516 12.8774L22.8211 12.9847L22.8363 12.862C22.8424 12.7946 22.8577 12.5554 22.8698 12.3316C22.882 12.1108 22.8973 11.9269 22.9064 11.9269C22.9155 11.9269 22.9125 12.117 22.9003 12.3469ZM22.6992 13.8646C22.6444 14.1222 22.5956 14.3399 22.5865 14.3491C22.5682 14.3675 22.5682 14.3644 22.6901 13.7389C22.7358 13.4936 22.7784 13.3189 22.7845 13.3434C22.7906 13.371 22.751 13.604 22.6992 13.8646ZM22.5682 14.4472C22.5591 14.4717 22.5499 14.4625 22.5499 14.4288C22.5469 14.395 22.556 14.3766 22.5652 14.3889C22.5743 14.3981 22.5773 14.4257 22.5682 14.4472ZM22.3153 15.2719C22.2391 15.4958 22.163 15.7012 22.1477 15.7288C22.1203 15.7686 22.1173 15.7686 22.1295 15.7288C22.1752 15.5663 22.4372 14.8396 22.4463 14.8488C22.4524 14.855 22.3945 15.045 22.3153 15.2719ZM21.7395 16.6547C21.6267 16.8785 21.5231 17.0748 21.5048 17.0932C21.4896 17.1085 21.5749 16.9215 21.6968 16.6731C21.8187 16.4248 21.9253 16.2285 21.9314 16.2347C21.9375 16.2408 21.8522 16.4309 21.7395 16.6547ZM21.063 17.8443C21.0356 17.8965 20.9777 17.9762 20.9381 18.0222C20.8985 18.0682 20.9198 18.0252 20.9808 17.9271C21.0966 17.7462 21.1575 17.6849 21.063 17.8443Z" fill="black"/>
</g>
<defs>
<clipPath id="clip0_28_433">
<rect width="39" height="39" fill="white"/>
</clipPath>
</defs>
</svg>
